<?xml version="1.0" encoding="UTF-8" standalone="no"?>
<svg
   width="203.60001"
   height="203.60001"
   viewBox="0 0 203.60001 203.60001"
   fill="none"
   version="1.1"
   id="svg5"
   sodipodi:docname="elem-obw.svg"
   inkscape:version="1.3.2 (1:1.3.2+202311252150+091e20ef0f)"
   xmlns:inkscape="http://www.inkscape.org/namespaces/inkscape"
   xmlns:sodipodi="http://sodipodi.sourceforge.net/DTD/sodipodi-0.dtd"
   xmlns="http://www.w3.org/2000/svg"
   xmlns:svg="http://www.w3.org/2000/svg">
  <defs
     id="defs5" />
  <sodipodi:namedview
     id="namedview5"
     pagecolor="#ffffff"
     bordercolor="#999999"
     borderopacity="1"
     inkscape:showpageshadow="0"
     inkscape:pageopacity="0"
     inkscape:pagecheckerboard="0"
     inkscape:deskcolor="#d1d1d1"
     inkscape:zoom="2.1460691"
     inkscape:cx="90.164851"
     inkscape:cy="113.92923"
     inkscape:window-width="1920"
     inkscape:window-height="1018"
     inkscape:window-x="0"
     inkscape:window-y="30"
     inkscape:window-maximized="1"
     inkscape:current-layer="svg5" />
  <path
     fill-rule="evenodd"
     clip-rule="evenodd"
     d="m 101.8,201.8 c 55.228,0 100,-44.772 100,-100 C 201.8,46.5715 157.028,1.8000002 101.8,1.8000002 46.5715,1.8000002 1.8000002,46.5715 1.8000002,101.8 c 0,55.228 44.7714998,100 99.9999998,100 z"
     fill="#0dbd8b"
     id="path1"
     style="stroke:#ffffff;stroke-width:3.6;stroke-dasharray:none" />
  <path
     fill-rule="evenodd"
     clip-rule="evenodd"
     d="m 83.5169,48.3946 c 0,-4.0365 3.279,-7.3087 7.3239,-7.3087 27.4152,0 49.6402,22.1783 49.6402,49.5366 0,4.0365 -3.28,7.3087 -7.324,7.3087 -4.045,0 -7.324,-3.2722 -7.324,-7.3087 0,-19.2853 -15.667,-34.9192 -34.9922,-34.9192 -4.0449,0 -7.3239,-3.2722 -7.3239,-7.3087 z"
     fill="#ffffff"
     id="path2" />
  <path
     fill-rule="evenodd"
     clip-rule="evenodd"
     d="m 155.19,83.3137 c 4.045,0 7.324,3.2722 7.324,7.3087 0,27.3586 -22.224,49.5366 -49.639,49.5366 -4.045,0 -7.324,-3.272 -7.324,-7.309 0,-4.036 3.279,-7.308 7.324,-7.308 19.325,0 34.991,-15.634 34.991,-34.9196 0,-4.0365 3.279,-7.3087 7.324,-7.3087 z"
     fill="#ffffff"
     id="path3" />
  <path
     fill-rule="evenodd"
     clip-rule="evenodd"
     d="m 120.198,155.205 c 0,4.037 -3.279,7.309 -7.324,7.309 -27.4148,0 -49.6393,-22.178 -49.6393,-49.537 0,-4.036 3.2791,-7.308 7.324,-7.308 4.0448,0 7.3239,3.272 7.3239,7.308 0,19.286 15.6663,34.92 34.9914,34.92 4.045,0 7.324,3.272 7.324,7.308 z"
     fill="#ffffff"
     id="path4" />
  <path
     fill-rule="evenodd"
     clip-rule="evenodd"
     d="m 48.4097,120.286 c -4.0449,0 -7.3239,-3.272 -7.3239,-7.308 0,-27.3587 22.2244,-49.5371 49.6397,-49.5371 4.0449,0 7.3239,3.2723 7.3239,7.3088 0,4.0365 -3.279,7.3087 -7.3239,7.3087 -19.3255,0 -34.9918,15.6338 -34.9918,34.9196 0,4.036 -3.2791,7.308 -7.324,7.308 z"
     fill="#ffffff"
     id="path5" />
</svg>
