<?xml version="1.0" encoding="UTF-8" standalone="no"?>
<svg
   id="emoji"
   viewBox="0 0 72 72"
   version="1.1"
   sodipodi:docname="gonewiththewind.svg"
   xml:space="preserve"
   inkscape:version="1.3 (1:1.3+202307231459+0e150ed6c4)"
   xmlns:inkscape="http://www.inkscape.org/namespaces/inkscape"
   xmlns:sodipodi="http://sodipodi.sourceforge.net/DTD/sodipodi-0.dtd"
   xmlns:xlink="http://www.w3.org/1999/xlink"
   xmlns="http://www.w3.org/2000/svg"
   xmlns:svg="http://www.w3.org/2000/svg"><defs
     id="defs11"><linearGradient
       id="linearGradient1"
       inkscape:collect="always"><stop
         style="stop-color:#dc0000;stop-opacity:1;"
         offset="0"
         id="stop1" /><stop
         style="stop-color:#0c0000;stop-opacity:1;"
         offset="1"
         id="stop2" /></linearGradient><radialGradient
       inkscape:collect="always"
       xlink:href="#linearGradient1"
       id="radialGradient2"
       cx="36"
       cy="36"
       fx="36"
       fy="36"
       r="36"
       gradientUnits="userSpaceOnUse" /></defs><sodipodi:namedview
     id="namedview11"
     pagecolor="#ffffff"
     bordercolor="#999999"
     borderopacity="1"
     inkscape:showpageshadow="0"
     inkscape:pageopacity="0"
     inkscape:pagecheckerboard="0"
     inkscape:deskcolor="#d1d1d1"
     inkscape:zoom="6.5309168"
     inkscape:cx="31.159484"
     inkscape:cy="30.087659"
     inkscape:window-width="1920"
     inkscape:window-height="1018"
     inkscape:window-x="0"
     inkscape:window-y="30"
     inkscape:window-maximized="1"
     inkscape:current-layer="emoji" /><rect
     style="fill:url(#radialGradient2);stroke:none;stroke-width:18.301;stroke-miterlimit:34.2;stroke-dashoffset:31.1138;paint-order:stroke markers fill"
     id="rect1"
     width="72"
     height="72"
     x="0"
     y="0" /><g
     id="g12"
     class="tippy"
     data-tippy-content="Ten okres już upłynął bezpowrotnie. Ta karta kalendarza nie jest aktualizowana."><g
       id="color"><path
         fill="#9B9B9A"
         stroke="none"
         d="M44.0449,43H27.9561C25.1357,45.584,24,49.665,24,52.3184V59h24v-6.6816 C48,49.665,46.8643,45.584,44.0449,43z"
         id="path1" /><path
         fill="#a57939"
         stroke="none"
         d="M55,11c0,1.1001-0.9004,2-2,2H19c-1.0996,0-2-0.8999-2-2v-1c0-1.1001,0.9004-2,2-2h34c1.0996,0,2,0.8999,2,2 V11z"
         id="path2" /><path
         fill="#a57939"
         stroke="none"
         d="M55,62c0,1.0996-0.9004,2-2,2H19c-1.0996,0-2-0.9004-2-2v-1c0-1.0996,0.9004-2,2-2h34c1.0996,0,2,0.9004,2,2 V62z"
         id="path3" /></g><g
       id="hair" /><g
       id="skin" /><g
       id="skin-shadow" /><g
       id="line"><path
         fill="none"
         stroke="#000000"
         stroke-linecap="round"
         stroke-linejoin="round"
         stroke-miterlimit="10"
         stroke-width="2"
         d="M31,34c-7.2725-1.9092-10-9.5454-10-14.3184C21,14.9092,21,13,21,13"
         id="path4" /><path
         fill="none"
         stroke="#000000"
         stroke-linecap="round"
         stroke-linejoin="round"
         stroke-miterlimit="10"
         stroke-width="2"
         d="M21,59c0,0,0-1.9092,0-6.6816C21,47.5459,23.7275,39.9092,31,38"
         id="path5" /><path
         fill="none"
         stroke="#000000"
         stroke-linecap="round"
         stroke-linejoin="round"
         stroke-miterlimit="10"
         stroke-width="2"
         d="M31,38c1-0.2715,2-0.8945,2-2c0-1.1045-1-1.7285-2-2"
         id="path6" /><path
         fill="none"
         stroke="#000000"
         stroke-linecap="round"
         stroke-linejoin="round"
         stroke-miterlimit="10"
         stroke-width="2"
         d="M41,34c7.2725-1.9092,10-9.5454,10-14.3184C51,14.9092,51,13,51,13"
         id="path7" /><path
         fill="none"
         stroke="#000000"
         stroke-linecap="round"
         stroke-linejoin="round"
         stroke-miterlimit="10"
         stroke-width="2"
         d="M51,59c0,0,0-1.9092,0-6.6816C51,47.5459,48.2725,39.9092,41,38"
         id="path8" /><path
         fill="none"
         stroke="#000000"
         stroke-linecap="round"
         stroke-linejoin="round"
         stroke-miterlimit="10"
         stroke-width="2"
         d="M41,38c-1-0.2715-2-0.8945-2-2c0-1.1045,1-1.7285,2-2"
         id="path9" /><path
         fill="none"
         stroke="#000000"
         stroke-linecap="round"
         stroke-linejoin="round"
         stroke-miterlimit="10"
         stroke-width="2"
         d="M55,11c0,1.1001-0.9004,2-2,2H19c-1.0996,0-2-0.8999-2-2v-1c0-1.1001,0.9004-2,2-2h34c1.0996,0,2,0.8999,2,2V11z"
         id="path10" /><path
         fill="none"
         stroke="#000000"
         stroke-linecap="round"
         stroke-linejoin="round"
         stroke-miterlimit="10"
         stroke-width="2"
         d="M55,62c0,1.0996-0.9004,2-2,2H19c-1.0996,0-2-0.9004-2-2v-1c0-1.0996,0.9004-2,2-2h34c1.0996,0,2,0.9004,2,2V62z"
         id="path11" /><line
         x1="29"
         x2="43"
         y1="43"
         y2="43"
         fill="none"
         stroke="#000000"
         stroke-linecap="round"
         stroke-linejoin="round"
         stroke-miterlimit="10"
         stroke-width="2"
         id="line11" /></g><g
       id="g11"
       transform="matrix(1.1237433,0,0,1.1237433,-4.5590411,-3.8959762)"><g
         id="color-6"><circle
           cx="36.0928"
           cy="58.8419"
           r="3"
           fill="#d22f27"
           stroke="none"
           stroke-linecap="round"
           stroke-linejoin="round"
           stroke-miterlimit="10"
           stroke-width="2"
           id="circle1" /><path
           fill="#d22f27"
           stroke="none"
           stroke-linecap="round"
           stroke-linejoin="round"
           stroke-miterlimit="10"
           stroke-width="2"
           d="m 35.9873,49.3729 c -1.3809,0 -2.5,-1.1191 -2.5,-2.5 V 11.6636 c 0,-1.3809 1.1191,-2.5 2.5,-2.5 1.3809,0 2.5,1.1191 2.5,2.5 v 35.2093 c 0,1.3809 -1.1191,2.5 -2.5,2.5 z"
           id="path1-7" /></g><g
         id="hair-5" /><g
         id="skin-3" /><g
         id="skin-shadow-5" /><g
         id="line-6"><circle
           cx="36.0928"
           cy="58.8419"
           r="3"
           fill="none"
           stroke="#000000"
           stroke-linecap="round"
           stroke-linejoin="round"
           stroke-miterlimit="10"
           stroke-width="2"
           id="circle2" /><path
           fill="none"
           stroke="#000000"
           stroke-linecap="round"
           stroke-linejoin="round"
           stroke-miterlimit="10"
           stroke-width="2"
           d="m 35.9873,49.3729 c -1.3809,0 -2.5,-1.1191 -2.5,-2.5 V 11.6636 c 0,-1.3809 1.1191,-2.5 2.5,-2.5 1.3809,0 2.5,1.1191 2.5,2.5 v 35.2093 c 0,1.3809 -1.1191,2.5 -2.5,2.5 z"
           id="path2-2" /></g></g></g></svg>
