<?xml version="1.0" encoding="UTF-8" standalone="no"?>
<svg
   width="500"
   height="499.997"
   viewBox="0 0 132.292 132.291"
   version="1.1"
   id="svg3"
   sodipodi:docname="dz.svg"
   xml:space="preserve"
   inkscape:version="1.3.2 (1:1.3.2+202311252150+091e20ef0f)"
   xmlns:inkscape="http://www.inkscape.org/namespaces/inkscape"
   xmlns:sodipodi="http://sodipodi.sourceforge.net/DTD/sodipodi-0.dtd"
   xmlns="http://www.w3.org/2000/svg"
   xmlns:svg="http://www.w3.org/2000/svg"><defs
     id="defs3" /><sodipodi:namedview
     id="namedview3"
     pagecolor="#ffffff"
     bordercolor="#999999"
     borderopacity="1"
     inkscape:showpageshadow="0"
     inkscape:pageopacity="0"
     inkscape:pagecheckerboard="0"
     inkscape:deskcolor="#d1d1d1"
     inkscape:zoom="0.58124525"
     inkscape:cx="667.53234"
     inkscape:cy="344.08883"
     inkscape:window-width="1920"
     inkscape:window-height="1021"
     inkscape:window-x="0"
     inkscape:window-y="27"
     inkscape:window-maximized="1"
     inkscape:current-layer="svg3" /><rect
     style="fill:#000080;fill-rule:evenodd;stroke-width:1;stroke-miterlimit:100;paint-order:stroke markers fill"
     id="rect3"
     width="132.29201"
     height="132.29121"
     x="0"
     y="-0.00010435132" /><g
     id="g4"
     style="fill:#ffffff;stroke:#00ffff"
     transform="matrix(10.793223,0,0,10.793223,-647.77695,-647.92936)"><path
       d="m 60.853803,65.880795 c 0,3.007258 2.351253,5.515956 5.241037,5.515956 0.981076,0 1.918243,-0.288897 2.73369,-0.817006 l 1.021129,1.121381 v -3.906231 h -3.556381 l 1.042833,1.145669 c -0.38735,0.175158 -0.807354,0.268718 -1.241271,0.268718 -1.745724,0 -3.165706,-1.414489 -3.165706,-3.328487 z"
       style="fill:#ffffff;stroke:#00ffff;stroke-width:0.264584"
       id="path4" /><path
       d="m 62.441307,60.589115 v 3.478349 h 3.580669 l -1.113113,-1.08159 c 0.404549,-0.180972 0.843634,-0.275436 1.295015,-0.275436 1.742909,0 3.160782,1.35691 3.161055,3.16984 h 2.07223 c 0,-2.849831 -2.347735,-5.241554 -5.233285,-5.241554 -1.017589,0 -1.999376,0.287319 -2.847896,0.838711 z"
       style="fill:#ffffff;stroke:#00ffff;stroke-width:0.264584"
       id="path3" /></g></svg>
