<svg xmlns="http://www.w3.org/2000/svg" xml:space="preserve" style="enable-background:new 0 0 128 128" viewBox="0 0 128 128"><path d="M100.39 123.79H6.8c-1.55 0-2.8-1.25-2.8-2.8V7.01c0-1.55 1.25-2.8 2.8-2.8h93.59c1.55 0 2.8 1.25 2.8 2.8v113.98c0 1.55-1.25 2.8-2.8 2.8z" style="fill:#fff"/><path d="M99.19 8.21v111.58H8V8.21h91.19m1.2-4H6.8C5.25 4.21 4 5.46 4 7.01v113.98c0 1.55 1.25 2.8 2.8 2.8h93.59c1.55 0 2.8-1.25 2.8-2.8V7.01c0-1.55-1.25-2.8-2.8-2.8z" style="fill:#6fbff0"/><path d="M47.34 24.79c2.05-.91 4.4.05 6.64.09 2.51.05 4.95-1.08 7.46-.94 2.47.13 4.74 1.47 7.2 1.68 3.09.25 6.03-1.3 9.1-1.69 4.37-.56 8.85 1.23 13.17.32M49.25 43.26c1.74-.47 3.6-.47 5.34-.02 1.64.43 3.19 1.25 4.88 1.29 2.16.05 4.13-1.19 6.24-1.63 5.04-1.06 10.39 2.44 15.26.78M52.25 63.04s1.86-1.58 6.77-.54c2.55.54 5.22 1.04 7.77.47 1-.22 1.95-.64 2.95-.85 1.1-.22 2.23-.19 3.35-.16 1.82.06 3.65.11 5.47.17M16.86 80.52c3.06-2.02 7.19.29 10.79-.42 1.65-.33 3.13-1.29 4.78-1.59 2.03-.37 4.08.29 6.13.54 1.27.16 2.55.15 3.83.15 1.33 0 2.67 0 4-.01 4.51-.01 9.05-.02 13.46-.94" style="fill:none;stroke:#b0bec5;stroke-width:3.0751;stroke-linecap:round;stroke-miterlimit:10"/><path d="M16.2 88.99c2.29-.88 4.72-1.74 7.14-1.36 2.32.37 4.48 1.86 6.81 1.56.94-.12 1.82-.54 2.71-.87 1.99-.75 4.11-1.12 6.23-1.08M66.48 89.34c1.28-1.45 3.48-1.59 5.39-1.3 1.91.29 3.83.9 5.73.55 1.18-.21 2.26-.79 3.44-.99 2.5-.43 5.23.81 7.54-.26" style="fill:none;stroke:#b0bec5;stroke-width:3.0751;stroke-linecap:round;stroke-miterlimit:10" transform="translate(0 4)"/><path d="M16.26 108.7c1.47-1.49 3.91-1.37 5.93-.8 2.02.57 4.02 1.5 6.1 1.28 1.81-.19 3.44-1.24 5.25-1.46 1.96-.25 3.89.49 5.81.96 2.65.66 5.41.82 8.12.49" style="fill:none;stroke:#b0bec5;stroke-width:3.0751;stroke-linecap:round;stroke-miterlimit:10"/><path d="M16.592 14.25h24.256v24.256H16.592zM16.592 48.25h24.256v24.256H16.592z" style="fill:none;stroke:#666;stroke-width:3;stroke-linecap:round;stroke-linejoin:round;stroke-miterlimit:3.6;stroke-dasharray:none;paint-order:stroke markers fill"/><path d="m58.9 78.6-41.3 41.9c-1.5 1.5-3.2 2.5-5 3 4.1 1.2 8.6.2 11.8-3l38.2-38.1c.8-.8 2.1-.8 2.8 0l-3.7-3.8c-.7-.8-2-.8-2.8 0zM82.3 65.4c-.8-.8-.8-2 0-2.8l38.2-38.1c4.7-4.7 4.7-12.3 0-17-4.7-4.7-12.2-4.7-16.9 0L65.4 45.6c-.8.8-2 .8-2.8 0L24.5 7.5c-4.7-4.7-12.3-4.7-17 0-.4.4-.7.8-1 1.2.2-.3.4-.5.6-.7 4.7-4.6 10.1-2.5 14.8 2.2l37.6 38.5c.8.8 2 .8 2.8 0l39.3-39.2c4.7-4.7 9.4-5.1 14.1-.4 4.7 4.7 3.9 9.6-.8 14.3L75.6 62.6c-.8.8-.8 2 0 2.8 0 0 38.1 38.2 38 38.2 4.7 4.7 6.5 10 1.8 14.7-4.7 4.7-10.6 3.5-15.3-1.1l3.4 3.4c4.7 4.7 12.3 4.7 17 0 4.7-4.7 4.7-12.2 0-16.9 0-.1-38.2-38.3-38.2-38.3z" style="fill:#c33" transform="matrix(.14712 0 0 .14712 19.304 50.955)"/><path d="M115.4 118.3c4.7-4.7 2.9-10-1.8-14.7.1 0-38-38.2-38-38.2-.8-.8-.8-2 0-2.8l39.3-39.2c4.7-4.7 5.5-9.6.8-14.3-4.7-4.7-9.4-4.3-14.1.4L62.3 48.7c-.8.8-2 .8-2.8 0L21.9 10.2C17.2 5.5 11.8 3.4 7.1 8c-.2.2-.4.4-.6.7-3.7 4.7-3.3 11.4 1 15.7l38.1 38.2c.8.8.8 2.1 0 2.8L7.5 103.5c-4.7 4.7-4.7 12.3 0 17 1.5 1.5 3.2 2.5 5 3 1.8-.6 3.6-1.6 5-3l41.3-41.9c.8-.8 2.1-.8 2.8 0l3.7 3.8 34.7 34.8c4.8 4.6 10.7 5.8 15.4 1.1z" style="fill:#f44336" transform="matrix(.14712 0 0 .14712 19.304 50.955)"/><g transform="matrix(.14712 0 0 .14712 19.304 50.955)"><path d="M55 56.4c-1.1-1.6-32.3-33.1-32.3-33.1s-2.3-2.6-4.7-.8c-2.2 1.7-1.1 4.3.1 5.6 1.2 1.3 29 29.7 30.4 30.9 1.3 1.2 3.9 1.4 5.5.6 1.6-.8 1.8-2.1 1-3.2z" style="opacity:.2;fill:#fff;enable-background:new"/><circle cx="12.2" cy="19" r="3.3" style="opacity:.2;fill:#fff;enable-background:new"/></g><path d="M72.1 81.8c1.1 1.6 32.8 32.6 32.8 32.6s2.3 2.6 4.7.7c2.2-1.7 1-4.3-.2-5.6-1.2-1.3-29.4-29.3-30.8-30.5-1.3-1.2-3.9-1.3-5.5-.5s-1.8 2.2-1 3.3z" style="opacity:.2;fill:#fff;enable-background:new" transform="matrix(.14712 0 0 .14712 19.304 50.955)"/><g transform="matrix(.14706 0 0 .14706 19.3 16.97)"><path d="M36.02 123.97c-.7-.02-1.41-.08-2.1-.2a12.05 12.05 0 0 1-9.3-8l-20-60c-2.1-6.3 1.3-13.1 7.6-15.2 6.3-2.1 13.1 1.3 15.2 7.6l13 39 62.2-78.6c4.11-5.22 11.68-6.11 16.9-2 5.22 4.11 6.11 11.68 2 16.9l-76 96a12.35 12.35 0 0 1-9.5 4.5z" style="fill:green"/><path d="M75.17 58.91c1.49-1.24 29.97-35.22 29.97-35.22s2.38-2.53.36-4.75c-1.9-2.03-4.38-.7-5.57.62-1.19 1.32-26.89 31.62-27.95 33.12a5.426 5.426 0 0 0-.09 5.53c.94 1.52 2.25 1.6 3.28.7z" style="opacity:.35;fill:#fff"/><circle cx="108.45" cy="12.83" r="3.3" style="opacity:.35;fill:#fff"/><path d="M12.73 65.49c.67-.01.53-3.76 2.28-7.35 1.23-2.54 2.82-3.82 2.81-5.24-.01-1.42-1.92-8.34-3.35-7.88-1.99.63-4.53 3.19-5.1 7.18-.89 6.28 2.13 13.31 3.36 13.29z" style="opacity:.35;fill:#fff"/></g></svg>