<?xml version="1.0" encoding="UTF-8" standalone="no"?>
<svg
   id="Layer_1"
   viewBox="0 0 720 1260.2"
   version="1.1"
   sodipodi:docname="wwa.svg"
   width="720"
   height="1260.2"
   inkscape:version="1.3.2 (1:1.3.2+202311252150+091e20ef0f)"
   xmlns:inkscape="http://www.inkscape.org/namespaces/inkscape"
   xmlns:sodipodi="http://sodipodi.sourceforge.net/DTD/sodipodi-0.dtd"
   xmlns="http://www.w3.org/2000/svg"
   xmlns:svg="http://www.w3.org/2000/svg">
  <sodipodi:namedview
     id="namedview15"
     pagecolor="#ffffff"
     bordercolor="#999999"
     borderopacity="1"
     inkscape:showpageshadow="0"
     inkscape:pageopacity="0"
     inkscape:pagecheckerboard="0"
     inkscape:deskcolor="#d1d1d1"
     inkscape:zoom="0.57075408"
     inkscape:cx="360.04999"
     inkscape:cy="860.26542"
     inkscape:window-width="1920"
     inkscape:window-height="1021"
     inkscape:window-x="0"
     inkscape:window-y="27"
     inkscape:window-maximized="1"
     inkscape:current-layer="Layer_1" />
  <defs
     id="defs1">
    <style
       id="style1">.cls-1{fill:#fff;}.cls-2{fill:#ffc837;}.cls-3{fill:#e62314;}</style>
  </defs>
  <g
     id="g8">
    <path
       class="cls-3"
       d="m 360,1260.2 c 18.6,-52.4 68.6,-90 127.4,-90 H 630 c 49.6,0 90,-40.2 90,-90 v -720 H 0 v 720 c 0,49.8 40.2,90 90,90 h 142.6 c 58.8,0 108.8,37.6 127.4,90 z"
       id="path1" />
    <g
       id="g3">
      <path
         class="cls-2"
         d="m 517.6,90.2 c -15,0 -29.2,4 -41.2,11.2 -12.2,-7 -26.2,-11.2 -41.2,-11.2 -16.6,0 -32.2,5 -45,13.4 -0.8,-15.8 -13.8,-28.4 -30,-28.4 -16.2,0 -29.2,12.6 -30,28.4 -13,-8.4 -28.4,-13.4 -45,-13.4 -15,0 -29.2,4 -41.2,11.2 -12.2,-7 -26.2,-11.2 -41.2,-11.2 -45.6,0 -82.4,37 -82.4,82.4 0,45.4 37,82.4 82.4,82.4 l 18,45 h 278.6 l 18.4,-45 c 45.6,0 82.4,-37 82.4,-82.4 0,-45.4 -37.2,-82.4 -82.6,-82.4 m -91.8,11.2 c 27,0 48.8,21.8 48.8,48.8 0,27 -21.8,48.8 -48.8,48.8 -27,0 -48.8,-21.8 -48.8,-48.8 0.2,-27 22,-48.8 48.8,-48.8 m -131.6,0 c 27,0 48.8,21.8 48.8,48.8 0,27 -21.8,48.8 -48.8,48.8 -27,0 -48.8,-21.8 -48.8,-48.8 0,-27 21.8,-48.8 48.8,-48.8 m -131.4,48.8 c 0,-27 21.8,-48.8 48.8,-48.8 8.4,0 16.4,2.2 23.2,5.8 -19.6,15 -32.4,38.8 -32.4,65.4 0,9 1.6,17.8 4.2,26 -24.4,-2.4 -43.8,-23.2 -43.8,-48.4 m 350.4,48.6 c 2.8,-8.2 4.2,-17 4.2,-26 0,-26.6 -12.8,-50.4 -32.4,-65.4 6.8,-3.8 14.8,-5.8 23.2,-5.8 27,0 48.8,21.8 48.8,48.8 0.2,25 -19.2,45.8 -43.8,48.4"
         id="path2" />
      <path
         class="cls-2"
         d="m 352.2,43.8 -9.6,16.4 h 34.6 l -9.4,-16.4 c 2.4,-1.4 4.4,-3.4 5.8,-5.8 L 390,47.4 V 12.8 l -16.4,9.4 c -1.4,-2.4 -3.4,-4.4 -5.8,-5.8 L 377.2,0 h -34.6 l 9.4,16.4 c -2.4,1.4 -4.4,3.4 -5.8,5.8 L 329.8,12.8 V 47.4 L 346.2,38 c 1.6,2.4 3.6,4.4 6,5.8"
         id="path3" />
    </g>
    <g
       id="g7">
      <path
         class="cls-1"
         d="m 393.6,649 c 0.4,-1 1,-2 1.4,-3 5.6,-10.8 13,-20.4 21.6,-28.8 -11.4,-4.8 -57.8,-24.2 -63.8,-26.8 -14.2,-6.2 -4.2,-36.2 -2.8,-46.2 -31.6,-4.6 -32,-55 -48.6,-61.6 v 0 c -7.4,4 -9.6,9.8 -11,19.4 -0.6,4.4 1,5.2 -2.6,9.6 -1.8,2.2 -9,6.6 -9.2,8.6 -0.6,3.6 5.8,5.2 7,5.4 0,1.6 -1.6,4 -1.6,7 0,3 1.6,4.2 1.4,6 -0.4,3.2 -3,6.6 -1,9.2 1,1.4 3.6,2.6 6.8,3.4 9.2,2 19.8,0 28.8,-1.8 0.2,0 0.4,0 0.6,0.4 -1.6,2.4 -4.6,4 -7,5.6 -1.8,1 -3.6,1.8 -5.4,2.6 1,7.8 -2,25.2 -5.2,24.8 -35,-4.4 -49.4,-20.2 -101.6,-36.6 2.6,-25.8 14.2,-72.8 18,-87.2 -3.2,-1 -6.4,-2.2 -9,-4 h 0.2 c 4,1 9.2,0.2 11.6,0 4.4,-0.6 12.4,-2.4 14.2,-4 0.8,-0.6 2.8,-5.6 4.4,-11.4 l 12.2,-0.2 v 4.8 l 2.4,19.2 h 13.8 v -20.8 c 3.6,-0.2 42,-1.8 91,-1.8 118,0 164.8,32.4 193,62.2 v -7.4 c -18.8,-39.4 -76,-75.2 -193,-75.2 h -80.4 c -4,6.8 -8.4,16.4 -10.8,21.4 v -42.2 h -13.8 l -2.4,18.4 v 5.6 l -10,-0.2 c 0.2,-2.4 0.2,-4.2 0.2,-4.8 -3,-1.2 -6.6,1.8 -7.4,4.4 -0.6,1.8 -5.2,16.2 -5.2,16.2 h -12.2 c 0.6,-0.4 1,-1 1.2,-1.8 l 0.4,-1.4 c 0.2,0.2 0.4,0.4 0.6,0.4 1.8,0.6 3.8,-0.4 4.4,-2.2 0,0 2.4,-7.2 3,-9 0.6,-2 2,-2 3.2,-2 h 4.4 c 0,-3 -5.2,-8.6 -5.2,-8.6 -1.8,-1.8 -4.6,-1.8 -6.2,0 -0.2,0.2 -0.4,0.4 -0.4,0.8 -1,-1.2 -2,-2.2 -2,-2.2 -1.8,-1.8 -4.6,-1.8 -6.4,0 -0.4,0.4 -0.8,1 -1,1.4 -0.8,-1 -2,-1.8 -3.4,-1.8 -2.4,0 -4.4,2 -4.4,4.4 v 0.2 c -0.6,-0.4 -1.4,-0.6 -2.2,-0.6 -2.2,0.2 -4,2 -3.8,4.4 l 0.2,1.6 -20.6,-0.4 v 18.4 l 14.8,-0.2 c -0.4,2.2 -0.6,5.2 -0.4,6.6 0.4,2.4 1.6,3.6 2.2,5 0.4,16.4 -35,91.2 -28,108.8 7.8,19.4 92.2,43 85.4,60 -6,15.2 -17,26.6 -15,34.4 1.8,7.6 6,13.8 11.8,16.8 v 0 c 3,1.8 6.2,3 9.2,3.8 0.4,0.2 0.4,-0.2 0.6,0.6 0,0.6 -0.2,0.4 -1,0.8 -3,0.6 -6,0.8 -9,0.4 v 46.4 h -0.2 c -19.8,19.8 -36,41.2 -48,65 38.8,38 98.6,50 150.6,26.2 -1,-27.4 -7,-46.2 -17.2,-71.4 0,0 41,-85.8 46,-91 3.6,-4.6 8.2,-4.8 11.8,-4 m -98,31.4 1.2,-0.8 c 5,7 13,11.6 22.2,11.6 13,0 23.8,-9.2 26.6,-21.4 0.6,0 1.6,0.2 1.6,0.2 5.4,32.8 -33.6,49.4 -51.6,10.4"
         id="path4" />
      <path
         class="cls-2"
         d="m 383.2,520 c 3.8,4.2 11.4,5 21,2.6 v 0 c -5.2,8.2 -12.8,13.6 -21,17.2 -12.2,4.2 -23.4,5 -33.4,4.2 -31.6,-4.6 -32,-55 -48.6,-61.6 -4.2,-4 4.4,-9.4 10.2,-11.4 13.4,-4.8 30.2,-2 44.8,6.6 18.4,11 22,25 56.4,23 -0.2,13.4 -22,20.8 -29.4,19.4"
         id="path5" />
      <path
         class="cls-2"
         d="m 419.2,614.6 c -9.8,8.8 -18,19.4 -24,31.4 -8.2,15.4 -12.6,33.2 -12.6,51.8 0,62.2 50.4,112.6 112.4,112.6 62,0 112.6,-50.4 112.6,-112.6 0,-62.2 -50.4,-112.4 -112.6,-112.4 -29.2,-0.2 -55.8,11 -75.8,29.2"
         id="path6" />
      <path
         class="cls-2"
         d="m 459.4,897 c -25.8,-16.2 -60,-8 -76.6,18.4 35.2,0 63.8,28.6 63.8,63.8 0,35.2 -28.6,63.8 -63.8,63.8 -35.2,0 -63.8,-28.6 -63.8,-63.8 0,-57.8 34,-104.2 34,-156.6 0,-2.8 -0.2,-5.4 -0.2,-7.8 -52,23.8 -111.8,11.8 -150.6,-26.2 -14.4,28.6 -22.4,60.6 -22.4,96.8 v 0 c 0,138.6 80.8,225 180.2,225 v 0 c 74.6,0 139,-55.2 139,-138 0,-70.2 11.2,-95.6 29.2,-113.4 -30,-8.6 -60.8,8.6 -68.8,38"
         id="path7" />
    </g>
  </g>
</svg>
