<?xml version="1.0" encoding="UTF-8" standalone="no"?>
<!-- Created with Inkscape (http://www.inkscape.org/) -->

<svg
   width="106.1904mm"
   height="106.1904mm"
   viewBox="0 0 106.1904 106.1904"
   version="1.1"
   id="svg1"
   inkscape:version="1.3.2 (1:1.3.2+202311252150+091e20ef0f)"
   sodipodi:docname="wielkanoc2.svg"
   xml:space="preserve"
   xmlns:inkscape="http://www.inkscape.org/namespaces/inkscape"
   xmlns:sodipodi="http://sodipodi.sourceforge.net/DTD/sodipodi-0.dtd"
   xmlns:xlink="http://www.w3.org/1999/xlink"
   xmlns="http://www.w3.org/2000/svg"
   xmlns:svg="http://www.w3.org/2000/svg"><sodipodi:namedview
     id="namedview1"
     pagecolor="#ffffff"
     bordercolor="#999999"
     borderopacity="1"
     inkscape:showpageshadow="0"
     inkscape:pageopacity="0"
     inkscape:pagecheckerboard="0"
     inkscape:deskcolor="#d1d1d1"
     inkscape:document-units="mm"
     inkscape:zoom="1.28"
     inkscape:cx="191.01563"
     inkscape:cy="216.79688"
     inkscape:window-width="1920"
     inkscape:window-height="1018"
     inkscape:window-x="0"
     inkscape:window-y="30"
     inkscape:window-maximized="1"
     inkscape:current-layer="layer1" /><defs
     id="defs1"><linearGradient
       id="linearGradient1"
       inkscape:collect="always"><stop
         style="stop-color:#c20000;stop-opacity:1;"
         offset="0"
         id="stop1" /><stop
         style="stop-color:#9a0000;stop-opacity:1;"
         offset="1"
         id="stop2" /></linearGradient><radialGradient
       inkscape:collect="always"
       xlink:href="#linearGradient1"
       id="radialGradient2"
       cx="79.774721"
       cy="97.17247"
       fx="79.774721"
       fy="97.17247"
       r="53.095201"
       gradientUnits="userSpaceOnUse" /></defs><g
     inkscape:label="Warstwa 1"
     inkscape:groupmode="layer"
     id="layer1"
     transform="translate(-26.67952,-44.077269)"><rect
       style="fill:url(#radialGradient2);fill-opacity:1;stroke:#ffcc00;stroke-width:2.88396;stroke-miterlimit:34.2;stroke-dashoffset:31.1138;paint-order:stroke markers fill"
       id="rect1"
       width="103.30644"
       height="103.30644"
       x="28.1215"
       y="45.519249" /><path
       style="fill:#ffcc00;fill-opacity:1;stroke:#aa8800;stroke-width:0.362769"
       d="m 77.624259,128.87069 c -0.141454,-0.14145 -0.25719,-5.29062 -0.25719,-11.44259 0,-8.71225 -0.100268,-11.18301 -0.453462,-11.17459 -0.249404,0.005 -4.207232,3.27087 -8.795171,7.2554 -4.58794,3.98452 -8.53154,7.24458 -8.763553,7.24458 -0.58567,0 -3.808832,-3.64461 -3.648509,-4.12558 0.07179,-0.21537 1.840574,-1.61986 3.930635,-3.12109 5.048974,-3.62653 15.851404,-11.94456 16.159479,-12.44303 0.287858,-0.46577 -0.600183,-1.276951 -10.310133,-9.417837 -4.449235,-3.730261 -7.34609,-6.411361 -7.34609,-6.79896 0,-0.351976 0.64037,-1.35475 1.423047,-2.228385 1.372437,-1.531937 1.455194,-1.569076 2.326956,-1.044273 0.497151,0.299285 4.120495,3.523404 8.051876,7.164706 3.931381,3.6413 7.291904,6.620547 7.46783,6.620547 0.410937,0 0.392572,-10.335183 -0.03591,-20.209794 -0.266746,-6.147321 -0.454781,-7.878771 -0.935271,-8.61209 -0.53623,-0.81839 -0.54074,-0.941131 -0.04164,-1.132657 0.307872,-0.118148 3.468052,-0.160616 7.022622,-0.09439 6.105319,0.11376 6.552273,0.170588 8.079212,1.027339 4.125562,2.314822 5.457097,8.378528 2.627408,11.965017 -1.464346,1.855985 -5.061234,3.528981 -8.778389,4.083029 l -3.083545,0.459608 -0.09887,6.619739 c -0.05438,3.640863 0.03902,6.61974 0.207577,6.61974 0.168551,0 4.102526,-3.183308 8.742168,-7.074014 4.639645,-3.890707 8.573521,-7.074013 8.741961,-7.074013 0.343393,0 3.991983,3.999892 3.991983,4.376343 0,0.132572 -1.92908,1.538013 -4.286838,3.123196 -7.103141,4.775635 -16.028279,11.398429 -16.028279,11.893589 0,0.45518 11.601849,9.68543 17.122457,13.62236 1.53617,1.0955 2.80133,2.21909 2.81147,2.49686 0.0252,0.69191 -3.18171,4.39235 -3.806586,4.39235 -0.277182,0 -1.937828,-1.4883 -3.690333,-3.30731 -3.819235,-3.96419 -12.30373,-11.70061 -13.011102,-11.86392 -0.41974,-0.0969 -0.519647,1.74663 -0.59963,11.06449 l -0.09598,11.18075 -2.191507,0.10598 c -1.205328,0.0583 -2.307242,-0.01 -2.448697,-0.15115 z m 9.869189,-49.819836 c 3.098856,-1.58092 4.283485,-4.484951 3.006832,-7.371033 -1.003483,-2.268548 -2.591665,-3.287751 -5.401995,-3.4667 -2.191051,-0.139515 -2.289594,-0.108687 -2.645515,0.827448 -0.396009,1.041583 -0.51608,9.190782 -0.149494,10.146092 0.322006,0.839131 3.439004,0.757571 5.190172,-0.135807 z"
       id="path2222" /></g></svg>
