<?xml version="1.0" encoding="UTF-8" standalone="no"?>
<svg
   width="394"
   height="394"
   version="1.1"
   id="svg2"
   sodipodi:docname="GWSW.svg"
   inkscape:version="1.3.2 (1:1.3.2+202311252150+091e20ef0f)"
   xmlns:inkscape="http://www.inkscape.org/namespaces/inkscape"
   xmlns:sodipodi="http://sodipodi.sourceforge.net/DTD/sodipodi-0.dtd"
   xmlns="http://www.w3.org/2000/svg"
   xmlns:svg="http://www.w3.org/2000/svg">
  <defs
     id="defs2" />
  <sodipodi:namedview
     id="namedview2"
     pagecolor="#ffffff"
     bordercolor="#999999"
     borderopacity="1"
     inkscape:showpageshadow="0"
     inkscape:pageopacity="0"
     inkscape:pagecheckerboard="0"
     inkscape:deskcolor="#d1d1d1"
     inkscape:zoom="0.77030457"
     inkscape:cx="103.20593"
     inkscape:cy="208.35914"
     inkscape:window-width="1920"
     inkscape:window-height="1018"
     inkscape:window-x="0"
     inkscape:window-y="30"
     inkscape:window-maximized="1"
     inkscape:current-layer="svg2" />
  <rect
     width="394"
     height="394"
     fill="darkblue"
     id="rect1" />
  <g
     id="svg_GWSW"
     transform="matrix(1,0,0,-1,-59,457.18653)"
     fill="#000000"
     stroke="none">
    <path
       class="icon1"
       d="m 275,383 h -14 l -19,-9 c -13,-6 -19,-9 -19,-10 0,-2 5,-23 5,-23 0,-1 7,2 14,6 7,3 14,6 14,6 1,0 1,-26 1,-59 v -58 h 16 l 16,1 v 73 c 0,40 0,73 0,73 0,0 -7,0 -14,0 z"
       id="path1" />
    <path
       class="icon1"
       d="m 97,190 c -2,-3 -2,-12 -1,-18 4,-18 17,-31 35,-34 17,-3 34,5 43,19 2,3 3,5 4,5 0,0 1,-2 2,-4 2,-3 5,-7 8,-9 19,-18 50,-14 64,7 2,3 4,6 4,6 0,0 2,-3 4,-6 6,-9 17,-16 29,-18 8,-1 17,0 25,4 6,2 14,10 18,16 1,2 2,4 2,4 1,0 2,-2 4,-5 9,-14 26,-22 43,-19 18,3 31,16 35,35 1,6 1,16 -1,17 0,1 -2,-2 -3,-5 -2,-2 -6,-7 -9,-10 -20,-19 -50,-15 -66,8 -2,4 -3,4 -3,3 -6,-8 -8,-11 -13,-15 -13,-9 -30,-11 -43,-4 -8,3 -17,11 -20,16 -1,2 -2,4 -2,4 0,0 -1,-2 -2,-4 -3,-5 -12,-13 -20,-16 -13,-7 -30,-5 -43,4 -5,4 -7,7 -13,15 0,1 -1,0 -4,-4 -12,-17 -35,-24 -53,-15 -9,4 -17,12 -21,19 -2,4 -3,5 -3,4 z"
       id="path2" />
  </g>
</svg>
