<svg xmlns="http://www.w3.org/2000/svg" width="394" height="394"><path d="M0 0h394v394H0z" style="fill:#ffbe00;stroke:none;stroke-width:4.838;stroke-linecap:round;stroke-linejoin:round;stroke-miterlimit:0;paint-order:stroke markers fill;fill-opacity:1"/><path d="M255.115 14.775c-31.52 7.88-57.13 14.775-57.13 14.775-.985.985-120.17 253.145-120.17 254.13 0 0 24.625-12.805 53.19-27.58 28.565-14.775 53.19-27.58 53.19-27.58 0 .985-14.775 37.43-32.505 82.74-17.73 45.31-32.505 81.755-32.505 82.74 0 0 35.46-54.175 78.8-119.185 43.34-65.995 78.8-120.17 77.815-120.17 0 0-15.76 4.925-36.445 11.82-19.7 6.895-35.46 11.82-36.445 11.82 0 0 25.61-40.385 56.145-88.65C290.575 41.37 315.2.985 316.185.985c0-.985-.985-.985-1.97-.985s-27.58 6.895-59.1 14.775z" class="icon1"/></svg>