<?xml version="1.0" encoding="UTF-8" standalone="no"?>
<svg
   width="394"
   height="394"
   version="1.1"
   id="svg1"
   sodipodi:docname="BU.svg"
   inkscape:version="1.3.2 (1:1.3.2+202311252150+091e20ef0f)"
   xmlns:inkscape="http://www.inkscape.org/namespaces/inkscape"
   xmlns:sodipodi="http://sodipodi.sourceforge.net/DTD/sodipodi-0.dtd"
   xmlns="http://www.w3.org/2000/svg"
   xmlns:svg="http://www.w3.org/2000/svg">
  <defs
     id="defs1" />
  <sodipodi:namedview
     id="namedview1"
     pagecolor="#ffffff"
     bordercolor="#999999"
     borderopacity="1"
     inkscape:showpageshadow="0"
     inkscape:pageopacity="0"
     inkscape:pagecheckerboard="0"
     inkscape:deskcolor="#d1d1d1"
     inkscape:zoom="0.77030457"
     inkscape:cx="152.53707"
     inkscape:cy="212.25371"
     inkscape:window-width="1920"
     inkscape:window-height="1018"
     inkscape:window-x="0"
     inkscape:window-y="30"
     inkscape:window-maximized="1"
     inkscape:current-layer="svg1" />
  <rect
     style="fill:#ffbe00;stroke:none;stroke-width:4.838;stroke-linecap:round;stroke-linejoin:round;stroke-miterlimit:0;paint-order:stroke markers fill;fill-opacity:1"
     id="rect1"
     width="394"
     height="394"
     x="0"
     y="0" />
  <g
     id="svg_BU"
     transform="matrix(0.985,0,0,-0.985,-55.16,451.13)"
     fill="#000000"
     stroke="none">
    <path
       class="icon1"
       d="m 315,443 c -32,-8 -58,-15 -58,-15 -1,-1 -122,-257 -122,-258 0,0 25,13 54,28 29,15 54,28 54,28 0,-1 -15,-38 -33,-84 -18,-46 -33,-83 -33,-84 0,0 36,55 80,121 44,67 80,122 79,122 0,0 -16,-5 -37,-12 -20,-7 -36,-12 -37,-12 0,0 26,41 57,90 32,49 57,90 58,90 0,1 -1,1 -2,1 -1,0 -28,-7 -60,-15 z"
       id="path1" />
  </g>
</svg>
