<svg xmlns="http://www.w3.org/2000/svg" width="394" height="394"><path d="M0 0h394v394H0z" style="fill:#ffbe00;stroke-width:10.2047;stroke-linejoin:round;stroke-miterlimit:0;paint-order:stroke markers fill;stroke:none;fill-opacity:1"/><path d="M198.128 16.441c-31.77 7.702-57.764 15.404-58.727 15.404 0 .963-25.031 53.913-55.839 118.417-30.807 64.503-56.801 120.342-58.727 123.23-.963 3.85-2.888 6.739-2.888 7.702 0 0 24.068-12.516 51.988-26.957 27.92-14.44 51.988-26.957 51.988-26.957s-11.553 29.845-25.994 67.392c-37.547 94.348-38.51 96.274-37.547 95.311.963-.963 155.963-235.87 155.963-236.833-.962 0-16.366 5.776-36.584 11.553-22.143 7.701-35.62 11.552-35.62 11.552.962-.962 24.068-38.51 52.95-83.758S253.004 8.74 253.967 5.851C255.892 3.925 256.855 2 255.892 2c-.963 0-26.956 6.74-57.764 14.441zM225.085 243.647c-2.889 1.925-4.814 2.888-4.814 2.888 0 .963-1.926.963-2.888 1.926-.963 0-3.851 1.925-5.777 2.888-2.888 1.925-5.776 3.85-7.702 4.814-9.627 4.813-12.515 19.254-4.813 27.919 4.813 4.814 7.702 6.74 13.478 6.74 7.702 0 12.516-2.89 16.367-9.628 2.888-3.851 2.888-4.814 2.888-22.143 0-19.255 0-19.255-6.74-15.404zM301.14 242.684c-1.925.963-3.85 1.926-4.813 2.888-1.925.963-4.814 2.889-8.665 4.814-10.59 5.777-12.515 7.702-15.403 11.553-2.889 3.851-2.889 4.814-2.889 9.627 0 6.74.963 10.59 5.777 14.441 3.85 3.851 6.739 4.814 12.515 4.814 4.814 0 5.777-.963 9.628-2.888 7.702-4.814 8.664-7.702 8.664-29.845 0-15.404 0-16.366-1.925-16.366-.963 0-1.925.962-2.888.962zM175.985 328.368c-.963.963-3.851 2.888-7.702 4.814-22.143 12.515-24.068 13.478-27.92 16.366-7.701 7.702-9.627 19.255-5.776 27.92 2.888 4.813 9.628 11.552 11.553 11.552.963 0 1.926 0 1.926.963.962 0 2.888.963 5.776 1.926 9.627.962 21.18-5.777 25.031-15.404 1.926-3.851 1.926-5.777 1.926-25.994 0-14.441-.963-22.143-1.926-23.106 0 0-.963.963-2.888.963zM269.37 330.293c-2.888 1.926-5.776 2.889-6.739 3.851 0 .963-1.925.963-1.925.963-.963 0-1.926 0-2.888.963 0 .963-4.814 2.888-11.553 6.739-1.926.963-4.814 2.888-5.777 2.888-6.739 4.814-12.515 14.441-12.515 22.143 0 9.627 6.739 19.255 16.366 22.143 6.74 1.926 9.628 1.926 16.367 0 2.888-.963 5.776-2.888 8.664-5.776 6.74-7.702 6.74-8.665 6.74-33.696 0-11.553 0-22.143-.963-22.143 0-.963-.963-.963-5.777 1.925zM366.607 329.33c-.963.963-3.851 1.926-4.814 2.889-.963 0-2.888.963-3.85 1.925-.963 0-1.926.963-2.889.963-.963.963-2.888 1.926-4.814 3.851-2.888.963-5.776 2.888-7.702 3.85-1.925 0-3.85 1.926-4.813 2.89-.963 0-1.926.962-1.926.962-1.925 0-6.739 5.776-9.627 9.627-.963 3.851-1.926 5.777-1.926 11.553 0 7.702 1.926 12.516 7.702 18.292 3.851 2.888 11.553 5.777 16.367 5.777 3.85 0 12.515-3.851 13.478-5.777.963 0 1.926-.963 2.888-.963 0 0 .963-.962.963-1.925 0 0 .963-.963.963-1.926.963 0 2.888-2.888 3.85-6.739 1.926-5.776 1.926-7.702.964-26.956 0-21.18 0-22.143-4.814-18.292z" class="icon1"/></svg>