<?xml version="1.0" encoding="UTF-8" standalone="no"?>
<svg
   width="394"
   height="394"
   version="1.1"
   id="svg3"
   sodipodi:docname="MG.svg"
   inkscape:version="1.3.1 (1:1.3.1+202311172155+91b66b0783)"
   xmlns:inkscape="http://www.inkscape.org/namespaces/inkscape"
   xmlns:sodipodi="http://sodipodi.sourceforge.net/DTD/sodipodi-0.dtd"
   xmlns="http://www.w3.org/2000/svg"
   xmlns:svg="http://www.w3.org/2000/svg">
  <defs
     id="defs3" />
  <sodipodi:namedview
     id="namedview3"
     pagecolor="#ffffff"
     bordercolor="#999999"
     borderopacity="1"
     inkscape:showpageshadow="0"
     inkscape:pageopacity="0"
     inkscape:pagecheckerboard="0"
     inkscape:deskcolor="#d1d1d1"
     inkscape:zoom="0.53651727"
     inkscape:cx="269.32963"
     inkscape:cy="198.50246"
     inkscape:window-width="1920"
     inkscape:window-height="1018"
     inkscape:window-x="0"
     inkscape:window-y="30"
     inkscape:window-maximized="1"
     inkscape:current-layer="svg3" />
  <path
     d="M 0,0 H 394 V 394 H 0 Z"
     style="fill:#ffbe00;fill-opacity:1;stroke-width:3.83573;stroke-linecap:round;stroke-miterlimit:3.6;stroke-dashoffset:31.1138;paint-order:fill markers stroke"
     id="path1-3" />
  <g
     id="svg_MG"
     transform="matrix(1,0,0,-1,-58.695136,445.5)"
     fill="#000000"
     stroke="none">
    <path
       class="icon1"
       d="m 90,350 c -8,-5 -8,-18 1,-23 3,-2 10,-2 165,-2 148,0 161,0 165,2 9,4 10,18 1,23 -3,2 -7,2 -166,2 -161,0 -163,0 -166,-2 z"
       id="path1" />
    <path
       class="icon1"
       d="m 90,260 c -9,-5 -9,-18 -1,-23 3,-2 5,-2 166,-2 159,0 163,0 166,2 9,5 8,20 -1,24 -3,1 -27,1 -165,1 -155,0 -162,0 -165,-2 z"
       id="path2" />
    <path
       class="icon1"
       d="m 90,170 c -8,-5 -8,-18 1,-23 3,-2 10,-2 165,-2 148,0 161,0 165,2 9,4 10,18 1,23 -3,2 -7,2 -166,2 -161,0 -163,0 -166,-2 z"
       id="path3" />
  </g>
</svg>
