<svg xmlns="http://www.w3.org/2000/svg" width="394" height="394"><path d="M0 0h394v394H0Z" style="fill:#ffbe00;fill-opacity:1;stroke-width:3.83573;stroke-linecap:round;stroke-miterlimit:3.6;stroke-dashoffset:31.1138;paint-order:fill markers stroke"/><path d="M31.305 95.5c-8 5-8 18 1 23 3 2 10 2 165 2 148 0 161 0 165-2 9-4 10-18 1-23-3-2-7-2-166-2-161 0-163 0-166 2zM31.305 185.5c-9 5-9 18-1 23 3 2 5 2 166 2 159 0 163 0 166-2 9-5 8-20-1-24-3-1-27-1-165-1-155 0-162 0-165 2zM31.305 275.5c-8 5-8 18 1 23 3 2 10 2 165 2 148 0 161 0 165-2 9-4 10-18 1-23-3-2-7-2-166-2-161 0-163 0-166 2z" class="icon1"/></svg>