<svg xmlns="http://www.w3.org/2000/svg" width="394" height="394"><path d="M0 0h394v394H0Z" style="fill:#ffbe00;fill-opacity:1;stroke-width:3.83573;stroke-linecap:round;stroke-miterlimit:3.6;stroke-dashoffset:31.1138;paint-order:fill markers stroke"/><g style="stroke-width:.961549"><path d="M340 445c-18-4-36-17-45-35-2-4-20-52-40-106l-35-98-6-4c-12-8-23-23-28-37-3-12-4-29-1-41 6-23 20-40 40-50 12-6 18-7 34-7 12 0 13 0 22 3 19 7 35 20 43 37 3 5 6 12 7 16 2 9 2 27 0 37l-2 7 35 97c20 54 37 100 37 103 7 22 0 49-14 64-13 12-31 17-47 14zm17-28c6-2 12-8 16-15 2-6 2-8 2-16v-9l-38-105c-21-58-38-106-38-106 0-1 1-4 3-8 2-6 2-8 2-17 0-8 0-12-2-16-3-8-9-16-16-21-24-18-58-10-71 17-6 13-5 28 1 41 3 7 11 15 20 20l7 5 38 104c26 72 39 106 41 109 9 14 23 20 35 17z" class="icon1" style="stroke-width:.961549" transform="matrix(1.03999 0 0 -1.03999 -69.063 463.68)"/><path d="M243 171c-4-1-11-8-14-15-4-8-4-19 0-27 11-22 39-25 54-7 9 10 10 29 3 36-10 8-34 15-43 13zM114 403c-6-4-8-12-4-18 5-7 3-7 63-7 36 0 55 0 57 1 4 2 7 5 8 9 2 6-1 12-5 15-3 2-6 2-59 2-55 0-57 0-60-2z" class="icon1" style="stroke-width:.961549" transform="matrix(1.03999 0 0 -1.03999 -69.063 463.68)"/></g></svg>