<svg xmlns="http://www.w3.org/2000/svg" width="276.123" height="339.092"><path d="M0 0h276.123v339.092H0z" style="fill:#d45500;stroke:none;stroke-width:3.40157;stroke-linecap:round;stroke-miterlimit:3.6;stroke-dashoffset:31.1138;paint-order:fill markers stroke"/><path d="M115.123.444c-2 1-6 7-21 33-10 17-18 31-18 32s-2 1-6 0c-8 0-10 0-11 1-1 0-4 16-7 35-3 24-5 34-4 35s2 2 4 3c2 0 3 1 3 1 1 0 0 6-1 12-4 23-2 26 12 28 7 1 8 1 11 0 2-1 4-3 5-4s2-9 4-16c1-8 2-14 2-15 1 0 135 21 136 21l-2 14c-3 15-3 19 1 23s20 6 24 2c3-2 4-5 6-19 3-16 3-15 5-14 4 0 7-1 7-3 1-2 11-63 11-66 0-4-2-5-9-6l-6-2-8-36c-6-28-8-37-10-38-1-2-11-4-61-12-33-5-61-9-62-9-1-1-4 0-5 0zm64 24c26 5 49 8 49 9 1 1 8 58 8 59-1 0-31-5-69-12-37-7-68-12-68-12-2 0 0-3 12-28 13-24 14-25 16-25 1 1 25 5 52 9zm-161 180c-14 1-19 5-18 13 2 7 10 11 51 28 39 15 55 24 66 36 3 3 7 8 8 10 3 5 3 12 1 17-3 5-11 11-23 18-13 8-16 10-14 12s19-1 30-4c29-10 41-28 33-46-5-11-21-24-41-34-5-3-21-10-35-15-31-13-45-19-48-23l-2-2 2-2c2-2 14-5 17-5 1 0 2-1 2-2 0 0-1-1-2-1h-9c-5-1-13 0-18 0zm96 6c-9 2-11 8-5 14 4 3 10 6 39 18 23 9 34 15 43 22 10 9 14 18 11 25-2 3-9 9-20 15-8 5-10 7-8 8 1 2 18-1 25-4 8-3 18-10 21-15 7-9 5-19-5-29-11-11-23-17-55-30-21-8-34-15-34-17 0-1 6-4 11-5 3 0 5-1 5-2s-2-1-12-1c-7 0-14 1-16 1z" class="icon1"/></svg>