<?xml version="1.0" encoding="UTF-8" standalone="no"?>
<svg
   width="394"
   height="394"
   version="1.1"
   id="svg2"
   sodipodi:docname="OB.svg"
   inkscape:version="1.3.1 (1:1.3.1+202311172155+91b66b0783)"
   xmlns:inkscape="http://www.inkscape.org/namespaces/inkscape"
   xmlns:sodipodi="http://sodipodi.sourceforge.net/DTD/sodipodi-0.dtd"
   xmlns="http://www.w3.org/2000/svg"
   xmlns:svg="http://www.w3.org/2000/svg">
  <defs
     id="defs2" />
  <sodipodi:namedview
     id="namedview2"
     pagecolor="#ffffff"
     bordercolor="#999999"
     borderopacity="1"
     inkscape:showpageshadow="0"
     inkscape:pageopacity="0"
     inkscape:pagecheckerboard="0"
     inkscape:deskcolor="#d1d1d1"
     inkscape:zoom="1.0991479"
     inkscape:cx="128.73609"
     inkscape:cy="266.11523"
     inkscape:window-width="1920"
     inkscape:window-height="1018"
     inkscape:window-x="0"
     inkscape:window-y="30"
     inkscape:window-maximized="1"
     inkscape:current-layer="svg2" />
  <path
     d="M 0,0 H 394 V 394.00001 H 0 Z"
     style="fill:#ffbe00;fill-opacity:1;stroke:none;stroke-width:4.37991;stroke-linecap:round;stroke-miterlimit:3.6;stroke-dashoffset:31.1138;paint-order:fill markers stroke"
     id="path1" />
  <path
     d="m 174.06151,27.897995 c -2,1 -6,7 -21,33 -10,17 -18,31 -18,32 0,1 -2,1 -6,0 -8,0 -10,0 -11,1 -1,0 -4,16.000005 -7,34.999995 -3,24 -5,34 -4,35 1,1 2,2 4,3 2,0 3,1 3,1 1,0 0,6 -1,12 -4,23 -2,26 12,28 7,1 8,1 11,0 2,-1 4,-3 5,-4 1,-1 2,-9 4,-16 1,-8 2,-14 2,-15 1,0 135,21 136,21 l -2,14 c -3,15 -3,19 1,23 4,4 20,6 24,2 3,-2 4,-5 6,-19 3,-16 3,-15 5,-14 4,0 7,-1 7,-3 1,-2 11,-63 11,-66 0,-3.99999 -2,-4.99999 -9,-5.99999 l -6,-2 -8,-36.000005 c -6,-28 -8,-37 -10,-38 -1,-2 -11,-4 -61,-12 -33,-5 -61,-9 -62,-9 -1,-1 -4,0 -5,0 z m 64,24 c 26,5 49,8 49,9 1,1 8,58.000005 8,59.000005 -1,0 -31,-5 -69,-12 -37,-7 -68,-12.000005 -68,-12.000005 -2,0 0,-3 12,-28 13,-24 14,-25 16,-25 1,1 25,5 52,9 z M 77.061507,231.89799 c -14,1 -19,5 -18,13 2,7 10,11 51.000003,28 39,15 55,24 66,36 3,3 7,8 8,10 3,5 3,12 1,17 -3,5 -11,11 -23,18 -13,8 -16,10 -14,12 2,2 19,-1 30,-4 29,-10 41,-28 33,-46 -5,-11 -21,-24 -41,-34 -5,-3 -21,-10 -35,-15 -31,-13 -45.000003,-19 -48.000003,-23 l -2,-2 2,-2 c 2,-2 14.000003,-5 17.000003,-5 1,0 2,-1 2,-2 0,0 -1,-1 -2,-1 h -9.000003 c -5,-1 -13,0 -18,0 z m 96.000003,6 c -9,2 -11,8 -5,14 4,3 10,6 39,18 23,9 34,15 43,22 10,9 14,18 11,25 -2,3 -9,9 -20,15 -8,5 -10,7 -8,8 1,2 18,-1 25,-4 8,-3 18,-10 21,-15 7,-9 5,-19 -5,-29 -11,-11 -23,-17 -55,-30 -21,-8 -34,-15 -34,-17 0,-1 6,-4 11,-5 3,0 5,-1 5,-2 0,-1 -2,-1 -12,-1 -7,0 -14,1 -16,1 z"
     class="icon1"
     id="path2" />
</svg>
