<?xml version="1.0" encoding="UTF-8" standalone="no"?>
<svg
   width="394"
   height="394"
   version="1.1"
   id="svg3"
   sodipodi:docname="OM.svg"
   inkscape:version="1.3.1 (1:1.3.1+202311172155+91b66b0783)"
   xmlns:inkscape="http://www.inkscape.org/namespaces/inkscape"
   xmlns:sodipodi="http://sodipodi.sourceforge.net/DTD/sodipodi-0.dtd"
   xmlns="http://www.w3.org/2000/svg"
   xmlns:svg="http://www.w3.org/2000/svg">
  <defs
     id="defs3" />
  <sodipodi:namedview
     id="namedview3"
     pagecolor="#ffffff"
     bordercolor="#999999"
     borderopacity="1"
     inkscape:showpageshadow="0"
     inkscape:pageopacity="0"
     inkscape:pagecheckerboard="0"
     inkscape:deskcolor="#d1d1d1"
     inkscape:zoom="0.48969778"
     inkscape:cx="192.97617"
     inkscape:cy="417.60451"
     inkscape:window-width="1920"
     inkscape:window-height="1018"
     inkscape:window-x="0"
     inkscape:window-y="30"
     inkscape:window-maximized="1"
     inkscape:current-layer="svg3" />
  <path
     d="M 0,0 H 394 V 394 H 0 Z"
     style="fill:#ffbe00;fill-opacity:1;stroke-width:3.83573;stroke-linecap:round;stroke-miterlimit:3.6;stroke-dashoffset:31.1138;paint-order:fill markers stroke"
     id="path1" />
  <path
     d="m 77.942495,13.018005 c -24,13 -29,17 -33,24 -4,8 -4,22 1,30 3,5 10,12 16,13 6,2 15,2 22,0 6,-2 15,-11 17.000005,-17 1,-3 2,-8 3,-10 0,-8 -1,-51.9999996 -3,-52.99999963 0,0 -11.000005,6.00000003 -23.000005,12.99999963 z m 123.999995,0 c -25,14 -31,19 -35,28 -2,7 -1,18 2,24 3,7 11,13 17,16 8,2 19,1 25,-2 9,-6 15,-14 17,-24 1,-7 -1,-54.99999963 -2,-54.99999963 -1,0 -12,6.00000003 -24,12.99999963 z m 124,0 c -26,14 -30,18 -34,28 -2,4 -2,7 -2,13 1,12 7,20 19,26 5,2 6,2 13,2 10,-1 15,-3 21,-9 8,-8 8,-11 9,-35 0,-24 -1,-37.99999963 -2,-37.99999963 -1,0 -12,6.00000003 -24,12.99999963 z m -209,115.000005 c -10,6 -20.999995,12 -21.999995,13 -6,4 -9,12 -10,20 0,7 0,8 3,14 6,10 14.999995,16 26.999995,15 7,-1 12,-4 17,-9 7,-7 8,-7 8,-37 0,-23 -1,-27 -2,-27 -1,0 -10,5 -21,11 z m 100,8 c -1,1 -8,12 -15,25 l -13,24 -7,-1 c -5,0 -6,0 -6,2 -2,4 -9,51 -8,53 0,0 2,1 3,2 3,0 3,1 3,2 -1,2 -1,7 -2,12 -2,14 0,16 11,18 5,0 6,0 9,-2 2,-3 3,-4 4,-14 1,-6 3,-11 3,-11 0,-1 100,15 103,15 0,1 0,4 -1,12 -3,16 -1,18 10,20 10,1 12,-1 14,-14 1,-4 1,-8 2,-10 0,-3 1,-3 3,-3 1,0 3,-1 4,-1 2,-2 9,-53 8,-54 -1,-1 -3,-2 -6,-3 l -5,-1 -6,-28 c -3,-15 -7,-28 -7,-29 -2,-1 -90,-16 -97,-16 -1,0 -3,1 -4,2 z m 50,16 c 21,4 39,7 39,8 1,1 6,44 6,45 -1,0 -105,-19 -106,-19 0,-1 20,-40 21,-40 1,0 19,3 40,6 z m -121,139 c -1,0 -4,0 -7,1 -8,1 -10,6 -5,12 3,4 11,8 38,18 11,5 22,10 26,11 19,10 31,22 31,32 0,6 -6,11 -20,20 -14,9 -13,11 5,7 14,-3 29,-11 34,-20 2,-5 2,-13 -1,-18 -4,-8 -16,-18 -30,-25 -3,-2 -15,-7 -27,-12 -30,-11 -39,-16 -39,-19 0,-2 6,-4 11,-5 3,0 5,-1 5,-1 0,-2 -13,-3 -21,-1 z"
     class="icon1"
     id="path2" />
  <path
     d="m 221.94249,295.01801 c -7,1 -9,2 -10,5 -1,5 3,8 33,20 9,4 20,9 24,11 11,7 18,15 18,21 0,3 -7,10 -15,15 -10,5 -11,8 -2,7 14,-2 27,-9 31,-17 3,-5 3,-8 0,-14 -5,-9 -17,-17 -44,-28 -19,-8 -27,-11 -29,-13 -1,-2 2,-4 7,-5 6,0 6,-2 0,-2 -5,-1 -5,-1 -13,0 z"
     class="icon1"
     id="path3" />
</svg>
