<svg xmlns="http://www.w3.org/2000/svg" width="309.885" height="393.964"><path d="M0 0h309.885v393.964H0z" style="fill:#ffbe00;stroke-width:3.40157;stroke-linecap:round;stroke-miterlimit:3.6;stroke-dashoffset:31.1138;paint-order:fill markers stroke;fill-opacity:1"/><path d="M35.885 13c-24 13-29 17-33 24-4 8-4 22 1 30 3 5 10 12 16 13 6 2 15 2 22 0 6-2 15-11 17-17 1-3 2-8 3-10 0-8-1-52-3-53 0 0-11 6-23 13zM159.885 13c-25 14-31 19-35 28-2 7-1 18 2 24 3 7 11 13 17 16 8 2 19 1 25-2 9-6 15-14 17-24 1-7-1-55-2-55s-12 6-24 13zM283.885 13c-26 14-30 18-34 28-2 4-2 7-2 13 1 12 7 20 19 26 5 2 6 2 13 2 10-1 15-3 21-9 8-8 8-11 9-35 0-24-1-38-2-38s-12 6-24 13zM74.885 128c-10 6-21 12-22 13-6 4-9 12-10 20 0 7 0 8 3 14 6 10 15 16 27 15 7-1 12-4 17-9 7-7 8-7 8-37 0-23-1-27-2-27s-10 5-21 11zM174.885 136c-1 1-8 12-15 25l-13 24-7-1c-5 0-6 0-6 2-2 4-9 51-8 53 0 0 2 1 3 2 3 0 3 1 3 2-1 2-1 7-2 12-2 14 0 16 11 18 5 0 6 0 9-2 2-3 3-4 4-14 1-6 3-11 3-11 0-1 100 15 103 15 0 1 0 4-1 12-3 16-1 18 10 20 10 1 12-1 14-14 1-4 1-8 2-10 0-3 1-3 3-3 1 0 3-1 4-1 2-2 9-53 8-54s-3-2-6-3l-5-1-6-28c-3-15-7-28-7-29-2-1-90-16-97-16-1 0-3 1-4 2zm50 16c21 4 39 7 39 8 1 1 6 44 6 45-1 0-105-19-106-19 0-1 20-40 21-40s19 3 40 6zM103.885 291c-1 0-4 0-7 1-8 1-10 6-5 12 3 4 11 8 38 18 11 5 22 10 26 11 19 10 31 22 31 32 0 6-6 11-20 20s-13 11 5 7c14-3 29-11 34-20 2-5 2-13-1-18-4-8-16-18-30-25-3-2-15-7-27-12-30-11-39-16-39-19 0-2 6-4 11-5 3 0 5-1 5-1 0-2-13-3-21-1z" class="icon1"/><path d="M179.885 295c-7 1-9 2-10 5-1 5 3 8 33 20 9 4 20 9 24 11 11 7 18 15 18 21 0 3-7 10-15 15-10 5-11 8-2 7 14-2 27-9 31-17 3-5 3-8 0-14-5-9-17-17-44-28-19-8-27-11-29-13-1-2 2-4 7-5 6 0 6-2 0-2-5-1-5-1-13 0z" class="icon1"/></svg>