<?xml version="1.0" encoding="UTF-8" standalone="no"?>
<svg
   width="394"
   height="394"
   version="1.1"
   id="svg6"
   sodipodi:docname="MG.svg"
   inkscape:version="1.3.2 (1:1.3.2+202311252150+091e20ef0f)"
   xmlns:inkscape="http://www.inkscape.org/namespaces/inkscape"
   xmlns:sodipodi="http://sodipodi.sourceforge.net/DTD/sodipodi-0.dtd"
   xmlns="http://www.w3.org/2000/svg"
   xmlns:svg="http://www.w3.org/2000/svg">
  <defs
     id="defs6" />
  <sodipodi:namedview
     id="namedview6"
     pagecolor="#ffffff"
     bordercolor="#999999"
     borderopacity="1"
     inkscape:showpageshadow="0"
     inkscape:pageopacity="0"
     inkscape:pagecheckerboard="0"
     inkscape:deskcolor="#d1d1d1"
     inkscape:zoom="0.77030457"
     inkscape:cx="88.925865"
     inkscape:cy="248.60297"
     inkscape:window-width="1920"
     inkscape:window-height="1018"
     inkscape:window-x="0"
     inkscape:window-y="30"
     inkscape:window-maximized="1"
     inkscape:current-layer="svg6" />
  <path
     d="M0 0h394v394H0Z"
     style="fill:#ffbe00;fill-opacity:1;stroke-width:3.83573;stroke-linecap:round;stroke-miterlimit:3.6;stroke-dashoffset:31.1138;paint-order:fill markers stroke"
     id="path1" />
  <g
     id="svg_PR"
     transform="matrix(1,0,0,-1,-59.00916,452.92187)"
     fill="#000000"
     stroke="none">
    <path
       class="icon1"
       d="m 302,445 c -16,-3 -32,-14 -42,-30 -5,-7 -5,-6 -45,-117 l -33,-92 -6,-4 c -6,-4 -16,-15 -21,-22 -2,-3 -5,-10 -6,-15 -3,-7 -3,-10 -4,-21 0,-15 1,-24 8,-36 9,-20 25,-33 46,-39 11,-4 30,-4 41,0 14,4 23,9 33,19 10,11 15,20 19,34 3,10 3,26 1,37 l -2,8 35,97 c 19,53 36,99 37,103 3,10 3,28 0,38 -3,11 -8,19 -15,25 -12,13 -30,18 -46,15 z m 20,-29 c 5,-3 9,-7 13,-15 2,-5 2,-7 2,-15 v -9 L 299,272 c -24,-65 -38,-106 -38,-107 1,-2 2,-5 3,-8 3,-9 3,-22 1,-30 -3,-9 -10,-18 -17,-23 -31,-24 -75,-2 -75,37 0,18 8,31 25,42 l 6,4 38,102 c 20,56 38,104 39,107 2,5 11,14 16,17 8,6 17,6 25,3 z"
       id="path3" />
    <path
       class="icon1"
       d="m 228,209 c -9,-25 -12,-30 -23,-38 -9,-6 -13,-11 -15,-18 -5,-15 2,-32 17,-40 8,-4 18,-4 27,0 16,8 22,24 17,42 -4,13 -4,18 7,45 4,11 7,21 6,21 -1,1 -26,10 -27,10 0,0 -4,-10 -9,-22 z"
       id="path4" />
    <path
       class="icon1"
       d="m 83,409 c -4,-2 -6,-4 -7,-8 -1,-5 0,-10 4,-14 l 3,-2 57,-1 c 55,0 57,0 60,2 8,5 8,18 -1,23 -3,2 -7,2 -58,2 -52,0 -56,0 -58,-2 z"
       id="path5" />
    <path
       class="icon1"
       d="m 379,285 c -19,-5 -32,-21 -36,-48 -2,-11 -1,-34 2,-43 7,-28 26,-42 51,-38 23,3 37,21 40,54 2,26 -4,50 -16,63 -5,6 -14,11 -22,12 -8,1 -11,1 -19,0 z m 18,-24 c 7,-5 10,-18 10,-40 0,-24 -3,-37 -11,-42 -9,-6 -19,1 -23,16 -2,8 -3,31 -1,42 1,9 4,18 7,22 5,5 12,6 18,2 z"
       id="path6" />
  </g>
</svg>
