<svg xmlns="http://www.w3.org/2000/svg" width="394" height="394"><path d="M0 0h394v394H0z" style="fill:#ffbe00;stroke:none;stroke-width:1.92756;stroke-linecap:square;stroke-miterlimit:3.6;stroke-dasharray:11.34,1.26;paint-order:stroke markers fill;fill-opacity:1"/><path d="M28.826 91.885c-4.246 12.738-7.43 22.292-6.37 22.292 0-1.061 7.432-5.307 15.924-11.677l16.985-10.615c1.061 0 9.554 5.308 19.108 11.677 9.554 6.37 18.046 11.677 18.046 11.677 3.185-3.185 23.354-32.908 23.354-32.908-1.061-1.062-74.308-12.739-77.493-12.739-1.061 0-3.185 4.246-9.554 22.293zM210.352 89.762c14.861 6.37 26.538 12.738 26.538 13.8 0 0-4.246 11.677-8.492 24.416-5.308 12.738-9.554 24.415-9.554 24.415 1.061 0 31.846-3.184 69-7.43l69.002-8.493 8.492-16.985 8.493-16.985-20.17-12.738-19.108-13.8H184.874z" class="icon1"/><path d="M120.12 119.485c-9.554 13.8-19.108 24.416-19.108 24.416-1.062 0-10.616-6.37-22.293-12.739l-20.17-13.8-5.307 2.123c-20.17 8.493-29.724 11.677-29.724 12.739 0 0 6.37 7.43 14.862 16.985 13.8 15.923 13.8 15.923 18.046 15.923 7.431 0 132.694-8.492 132.694-8.492 1.062-1.062 14.862-46.709 13.8-47.77 0 0-63.692-12.739-64.754-12.739 0 0-8.492 10.616-18.046 23.354zM1.226 183.178c-2.123 5.308-1.062 16.985 0 23.354 3.184 12.74 13.8 26.54 26.539 32.909 23.354 12.738 54.139 5.307 69-18.047 2.124-3.184 3.185-5.308 4.247-5.308 0 0 2.123 2.124 3.184 5.308 3.185 5.308 13.8 14.862 20.17 19.108 15.923 7.431 33.97 7.431 48.831-1.061 6.37-3.185 19.108-14.862 21.231-20.17 1.062-2.123 2.123-3.185 2.123-3.185s2.123 2.124 3.185 4.247c4.246 6.369 14.862 15.923 21.231 19.108 23.354 12.738 53.078 5.307 67.94-16.985l4.246-6.37s3.184 3.185 5.307 7.431c9.554 13.8 25.478 22.293 43.524 22.293 24.416 0 45.647-16.985 50.954-41.4 1.062-5.308 1.062-22.293 0-24.416-1.061-1.062-2.123 2.123-4.246 5.307-9.554 20.17-32.908 31.847-55.2 28.662-14.862-2.123-31.847-13.8-38.216-25.477l-2.123-4.246-3.185 5.308c-4.246 7.43-14.862 15.923-21.231 19.108-3.185 2.123-9.554 4.246-13.8 5.307-20.17 3.185-42.462-5.307-54.14-23.354l-4.246-6.37-4.246 7.432c-10.615 15.923-31.846 25.477-49.893 22.292-15.923-2.123-28.662-10.615-37.154-22.292l-4.246-7.431-4.247 6.37c-11.677 18.046-33.97 26.538-54.139 23.353-4.246-1.061-10.615-3.184-13.8-5.307-7.43-3.185-20.17-15.924-23.354-23.355-2.123-3.184-3.185-6.369-4.246-6.369v4.246zM1.226 262.795c-2.123 7.43-1.062 19.108 1.061 25.477 5.308 16.985 20.17 30.785 37.155 35.031 7.43 2.123 24.415 1.062 31.846-2.123 10.616-4.246 21.231-13.8 28.662-25.477 0-1.062 1.062-1.062 4.246 4.246 4.247 6.37 11.677 13.8 18.047 18.046 15.923 8.493 38.216 8.493 53.077 0 5.308-4.246 14.862-12.738 18.047-18.046 3.184-5.308 4.246-5.308 4.246-3.185 4.246 6.37 11.677 14.862 18.046 19.108 9.554 6.37 19.108 8.493 31.847 8.493 10.615-1.062 11.677-1.062 19.108-4.246 9.554-4.247 19.108-13.8 23.354-21.232 1.061-2.123 3.185-4.246 3.185-4.246s2.123 2.123 3.184 4.246c8.493 14.862 26.539 25.478 44.585 25.478 14.862 0 27.6-4.246 37.155-14.862C388.692 298.887 394 286.149 394 273.41c0-7.43-1.062-14.861-2.123-14.861 0 0-2.123 2.123-3.185 5.307-3.184 7.431-14.861 19.108-22.292 23.354-14.862 8.493-33.97 8.493-48.832 0-6.369-3.184-16.985-12.738-21.23-19.108-1.062-2.123-3.185-4.246-3.185-4.246l-4.247 6.37c-10.615 15.923-32.908 25.477-52.016 22.292-11.677-2.123-20.17-6.37-28.662-14.862-4.246-4.246-8.492-8.492-9.554-10.615l-2.123-4.246-2.123 4.246c-3.184 5.308-9.554 12.739-15.923 16.985-25.477 16.985-57.324 10.615-74.309-14.862l-4.246-6.37-3.185 5.308c-6.369 12.74-21.23 22.293-36.092 24.416-21.231 4.246-45.647-8.492-55.201-27.6-1.062-3.185-3.185-6.37-3.185-6.37s-1.061 2.124-1.061 4.247z" class="icon1"/></svg>