<svg xmlns="http://www.w3.org/2000/svg" width="295.056" height="285.5"><path d="M0 0h295.056v285.5H0Z" style="fill:#d45500;stroke:none;stroke-width:3.22645;stroke-linecap:round;stroke-miterlimit:3.6;stroke-dashoffset:31.1138;paint-order:fill markers stroke"/><path d="M71 3C55 7 26 18 4 28l-4 2v126c0 121 0 127 2 128 2 2 5 2 8 0l2-2V171l1-111 7 15c12 24 23 41 27 43 1 0 40 12 86 24 47 13 92 26 101 29 19 5 26 5 35 1 9-5 12-9 19-27 8-20 9-25 4-36-4-9-9-13-27-22-9-4-38-19-66-34-28-14-63-31-78-39C95 0 94 0 88 0c-4 0-11 1-17 3zm16 9s-2 4-5 9C70 46 57 79 53 95c-1 5-3 9-3 9s-2-4-4-9c-3-5-10-20-16-33-7-13-12-25-12-26 0 0 15-6 34-13 34-12 35-12 35-11zm48 18c7 4 14 7 14 8 0 0-2 3-5 8-12 19-21 39-26 61-2 8-4 15-4 16 0 6-1 6-17 1-9-2-16-4-16-5-1 0 0-6 1-12 5-30 16-56 35-83 1 0 2-1 3-1s7 3 15 7zm87 44c0 1-2 4-4 8-11 16-21 40-25 60-1 5-2 9-2 10-1 0-7-2-14-4l-14-3 1-5c2-23 12-49 26-69l6-10 13 7c7 3 13 6 13 6z" class="icon1"/></svg>