<?xml version="1.0" encoding="UTF-8" standalone="no"?>
<svg
   width="394"
   height="394"
   version="1.1"
   id="svg2"
   sodipodi:docname="SW.svg"
   inkscape:version="1.3.1 (1:1.3.1+202311172155+91b66b0783)"
   xmlns:inkscape="http://www.inkscape.org/namespaces/inkscape"
   xmlns:sodipodi="http://sodipodi.sourceforge.net/DTD/sodipodi-0.dtd"
   xmlns="http://www.w3.org/2000/svg"
   xmlns:svg="http://www.w3.org/2000/svg">
  <defs
     id="defs2" />
  <sodipodi:namedview
     id="namedview2"
     pagecolor="#ffffff"
     bordercolor="#999999"
     borderopacity="1"
     inkscape:showpageshadow="0"
     inkscape:pageopacity="0"
     inkscape:pagecheckerboard="0"
     inkscape:deskcolor="#d1d1d1"
     inkscape:zoom="1.0286183"
     inkscape:cx="153.11802"
     inkscape:cy="272.69591"
     inkscape:window-width="1920"
     inkscape:window-height="1018"
     inkscape:window-x="0"
     inkscape:window-y="30"
     inkscape:window-maximized="1"
     inkscape:current-layer="svg2" />
  <path
     d="M 0,0 H 394 V 394 H 0 Z"
     style="fill:#ffbe00;fill-opacity:1;stroke:none;stroke-width:4.37992;stroke-linecap:round;stroke-miterlimit:3.6;stroke-dashoffset:31.1138;paint-order:fill markers stroke"
     id="path1" />
  <path
     d="m 120.472,57.25 c -16,4 -45,15 -67,25 l -4,2 v 126 c 0,121 0,127 2,128 2,2 5,2 8,0 l 2,-2 v -111 l 1,-111 7,15 c 12,24 23,41 27,43 1,0 40,12 86,24 47,13 92,26 101,29 19,5 26,5 35,1 9,-5 12,-9 19,-27 8,-20 9,-25 4,-36 -4,-9 -9,-13 -27,-22 -9,-4 -38,-19 -66,-34 -28,-14 -63,-31 -78,-39 -26,-14 -27,-14 -33,-14 -4,0 -11,1 -17,3 z m 16,9 c 0,0 -2,4 -5,9 -12,25 -25,58 -29,74 -1,5 -3,9 -3,9 0,0 -2,-4 -4,-9 -3,-5 -10,-20 -16,-33 -7,-13 -12,-25 -12,-26 0,0 15,-6 34,-13 34,-12 35,-12 35,-11 z m 48,18 c 7,4 14,7 14,8 0,0 -2,3 -5,8 -12,19 -21,39 -26,61 -2,8 -4,15 -4,16 0,6 -1,6 -17,1 -9,-2 -16,-4 -16,-5 -1,0 0,-6 1,-12 5,-30 16,-56 35,-83 1,0 2,-1 3,-1 1,0 7,3 15,7 z m 87,44 c 0,1 -2,4 -4,8 -11,16 -21,40 -25,60 -1,5 -2,9 -2,10 -1,0 -7,-2 -14,-4 l -14,-3 1,-5 c 2,-23 12,-49 26,-69 l 6,-10 13,7 c 7,3 13,6 13,6 z"
     class="icon1"
     id="path2" />
</svg>
