<svg xmlns="http://www.w3.org/2000/svg" width="394" height="394"><path d="M0 0h394v394H0z" style="fill:#ffbe00;stroke-width:1.82;stroke-linecap:round;stroke-linejoin:round;stroke-miterlimit:0;paint-order:stroke markers fill;fill-opacity:1"/><path d="M97.91 2.267c-1 1-4 2-6 4-3 4-4 10-4 32v15h-21c-18 0-21 0-24 2-6 3-9 12-5 19 4 6 6 6 28 6h21v22c0 21 0 22 2 24 6 8 18 7 23-2 1-1 2-9 2-23l1-21h22l22-1 4-3c2-3 3-5 3-9 0-3-1-6-2-8-3-5-6-6-29-6h-20v-20c1-18 1-21-1-24-3-6-9-9-16-7zM288.91 15.267c-3 1-8 3-12 5-9 5-22 18-27 27-2 4-20 51-40 106l-36 99-5 4c-8 6-18 17-23 26-13 24-12 51 2 75 4 7 18 21 25 25 19 11 43 13 64 6 11-4 18-8 28-18s14-16 18-29c3-8 3-9 3-23 0-11 0-16-1-20l-2-6 36-99c20-55 37-102 38-106 0-4 1-10 1-15 0-28-16-50-40-57-7-3-22-2-29 0zm26 28c10 6 16 18 15 33-1 7-4 15-39 112l-38 105 3 7c3 9 4 21 1 31-7 23-30 37-54 33-22-5-38-24-38-47 0-16 10-32 25-41l7-4 38-105c30-81 39-106 42-110 4-6 12-12 18-14 6-3 15-2 20 0z" class="icon1"/><path d="M281.91 82.267c-1 2-17 45-35 95s-34 93-36 96c-3 5-9 11-15 15-10 7-15 16-15 27 0 8 1 13 5 19 11 16 35 19 49 5 9-9 12-20 8-34-2-7-2-10-2-16 1-8 3-14 35-103 19-51 34-94 35-95 0-1-2-2-8-4-4-2-10-4-14-6l-6-2z" class="icon1"/></svg>